<?xml version="1.0" encoding="UTF-8" standalone="no"?>
<!-- Created with Inkscape (http://www.inkscape.org/) -->

<svg
   xmlns:dc="http://purl.org/dc/elements/1.1/"
   xmlns:cc="http://creativecommons.org/ns#"
   xmlns:rdf="http://www.w3.org/1999/02/22-rdf-syntax-ns#"
   xmlns:svg="http://www.w3.org/2000/svg"
   xmlns="http://www.w3.org/2000/svg"
   xmlns:sodipodi="http://sodipodi.sourceforge.net/DTD/sodipodi-0.dtd"
   xmlns:inkscape="http://www.inkscape.org/namespaces/inkscape"
   width="220"
   height="176"
   id="svg2985"
   version="1.1"
   inkscape:version="0.48.4 r9939"
   sodipodi:docname="FMS.svg">
  <defs
     id="defs2987" />
  <sodipodi:namedview
     id="base"
     pagecolor="#191919"
     bordercolor="#666666"
     borderopacity="1.0"
     inkscape:pageopacity="1"
     inkscape:pageshadow="2"
     inkscape:zoom="2.327212"
     inkscape:cx="123.89045"
     inkscape:cy="129.62244"
     inkscape:current-layer="layer1"
     inkscape:document-units="px"
     showgrid="false"
     showguides="true"
     inkscape:guide-bbox="true"
     inkscape:window-width="1600"
     inkscape:window-height="880"
     inkscape:window-x="0"
     inkscape:window-y="0"
     inkscape:window-maximized="1">
    <inkscape:grid
       type="xygrid"
       id="grid3117"
       empspacing="5"
       visible="true"
       enabled="true"
       snapvisiblegridlinesonly="true" />
  </sodipodi:namedview>
  <metadata
     id="metadata2990">
    <rdf:RDF>
      <cc:Work
         rdf:about="">
        <dc:format>image/svg+xml</dc:format>
        <dc:type
           rdf:resource="http://purl.org/dc/dcmitype/StillImage" />
        <dc:title />
      </cc:Work>
    </rdf:RDF>
  </metadata>
  <g
     id="layer1"
     inkscape:label="Layer 1"
     inkscape:groupmode="layer"
     transform="translate(0,-424)">
    <rect
       style="fill:#ff0027;fill-opacity:1;stroke:#000000;stroke-width:0.54027927;stroke-opacity:1"
       id="rect3763"
       width="143.45972"
       height="143.45972"
       x="0.27013963"
       y="424.27014" />
    <text
       xml:space="preserve"
       style="font-size:40px;font-style:normal;font-weight:bold;text-align:end;line-height:125%;letter-spacing:0px;word-spacing:0px;text-anchor:end;fill:#ffffff;fill-opacity:1;stroke:none;font-family:Sans;-inkscape-font-specification:Sans Bold"
       x="137.11047"
       y="459.297"
       id="text3765"
       sodipodi:linespacing="125%"><tspan
         sodipodi:role="line"
         x="137.11047"
         y="459.297"
         id="tspan3769"
         style="font-size:44px;text-align:end;text-anchor:end;fill:#ffffff">ROCK</tspan><tspan
         sodipodi:role="line"
         x="137.11047"
         y="514.297"
         style="font-size:44px;text-align:end;text-anchor:end;fill:#ffffff"
         id="tspan3189">box</tspan></text>
    <text
       xml:space="preserve"
       style="font-size:1846.00439453px;font-style:normal;font-weight:bold;line-height:125%;letter-spacing:0px;word-spacing:0px;fill:#cccccc;fill-opacity:1;stroke:none;font-family:Sans;-inkscape-font-specification:Sans Bold"
       x="-1.4585296"
       y="526.69702"
       id="text3802"
       sodipodi:linespacing="125%"
       transform="scale(0.88520502,1.1296818)"><tspan
         sodipodi:role="line"
         id="tspan3804"
         x="-1.4585296"
         y="526.69702"
         style="font-size:28.99138451px;fill:#cccccc">[freq/RDS]</tspan></text>
    <text
       xml:space="preserve"
       style="font-size:31.05518341px;font-style:italic;font-weight:normal;line-height:125%;letter-spacing:0px;word-spacing:0px;fill:#cccccc;fill-opacity:1;stroke:none;font-family:Sans;-inkscape-font-specification:Sans Italic"
       x="210.58693"
       y="419.86133"
       id="text3806"
       sodipodi:linespacing="125%"
       transform="scale(0.72168699,1.3856423)"><tspan
         sodipodi:role="line"
         id="tspan3808"
         x="210.58693"
         y="419.86133"
         style="font-size:13.1984539px;fill:#cccccc">[Mono/Stereo]</tspan></text>
    <text
       xml:space="preserve"
       style="font-size:40px;font-style:normal;font-weight:normal;line-height:125%;letter-spacing:0px;word-spacing:0px;fill:#000000;fill-opacity:1;stroke:none;font-family:Sans"
       x="495.83334"
       y="300"
       id="text3835"
       sodipodi:linespacing="125%"><tspan
         sodipodi:role="line"
         id="tspan3837"
         x="495.83334"
         y="300"
         style="font-size:12px" /><tspan
         sodipodi:role="line"
         x="495.83334"
         y="315"
         style="font-size:12px"
         id="tspan3042" /></text>
    <text
       xml:space="preserve"
       style="font-size:8px;font-style:normal;font-weight:normal;line-height:125%;letter-spacing:0px;word-spacing:0px;fill:#ffffff;fill-opacity:1;stroke:none;font-family:Sans"
       x="145"
       y="390"
       id="text3853"
       sodipodi:linespacing="125%"><tspan
         sodipodi:role="line"
         id="tspan3855"
         x="145"
         y="390"
         style="font-size:11px;fill:#ffffff">volume level</tspan></text>
    <flowRoot
       xml:space="preserve"
       id="flowRoot3815"
       style="font-size:40px;font-style:normal;font-weight:normal;line-height:125%;letter-spacing:0px;word-spacing:0px;fill:#000000;fill-opacity:1;stroke:none;font-family:Sans"><flowRegion
         id="flowRegion3817"><rect
           id="rect3819"
           width="111.66666"
           height="65.833336"
           x="85.833336"
           y="465" /></flowRegion><flowPara
         id="flowPara3821">Format</flowPara></flowRoot>    <flowRoot
       xml:space="preserve"
       id="flowRoot3823"
       style="font-size:20px;font-style:normal;font-weight:normal;line-height:125%;letter-spacing:0px;word-spacing:0px;fill:#ffffff;fill-opacity:1;stroke:none;font-family:Sans"
       transform="translate(-174.45768,199.8099)"><flowRegion
         id="flowRegion3825"><rect
           id="rect3827"
           width="568.33331"
           height="99.166664"
           x="75.833336"
           y="470.83334"
           style="font-size:20px;fill:#ffffff" /></flowRegion><flowPara
         id="flowPara3829"
         style="font-size:10px;fill:#ffffff">[format] may not be useful</flowPara></flowRoot>    <g
       id="g3132"
       transform="matrix(0.92958834,0,0,0.91309986,144.02847,20.148691)">
      <rect
         y="460.16824"
         x="0.38701266"
         height="139.44473"
         width="14.225975"
         id="rect3113-2"
         style="fill:#ffffff;fill-opacity:1;stroke:#393939;stroke-width:0.77402532;stroke-opacity:1" />
      <rect
         y="471.24442"
         x="0.37174478"
         height="128.38383"
         width="14.256511"
         id="rect3113"
         style="fill:#339900;fill-opacity:1;stroke:#393939;stroke-width:0.74348956;stroke-opacity:1" />
    </g>
    <rect
       style="fill:#ffff00;fill-opacity:1;stroke:#393939;stroke-width:0.69889343000000004;stroke-opacity:1"
       id="rect3036"
       width="13.301107"
       height="15.301106"
       x="144.34982"
       y="424.34946" />
    <path
       style="fill:none;stroke:#000000;stroke-width:1px;stroke-linecap:butt;stroke-linejoin:miter;stroke-opacity:1"
       d="m 148.16014,459.7614 c 0,-2.22223 0,-4.44445 0,-6.66667 0,-0.83333 -0.22894,-1.69873 0,-2.5 0.34127,-1.19446 1.16213,-2.19814 1.66666,-3.33333 0.60754,-1.36695 1.15546,-2.76085 1.66667,-4.16667 1.03715,-2.85216 1.95299,-6.40598 3.33333,-9.16667 0.44791,-0.8958 1.34995,-1.54985 1.66667,-2.5 0,-5.9106 -0.58926,-0.48815 0.83333,-3.33333 0.24846,-0.4969 -0.39283,-1.27383 0,-1.66667 0.19642,-0.19642 0.63692,0.19642 0.83334,0 0.41666,-0.41666 -0.41667,-2.08333 0,-2.5 0.19642,-0.19642 0.7091,0.24846 0.83333,0 0.24845,-0.4969 -0.17568,-1.13962 0,-1.66666 0.12423,-0.37268 0.70911,-0.46066 0.83333,-0.83334 0.35137,-1.05409 -0.35136,-2.27924 0,-3.33333 0.12423,-0.37268 0.65765,-0.48197 0.83334,-0.83333 0.24845,-0.49691 -0.24846,-1.16977 0,-1.66667 0.17568,-0.35137 0.65765,-0.48197 0.83333,-0.83334 0.24845,-0.4969 -0.24845,-1.16976 0,-1.66666 0.17568,-0.35137 0.61543,-0.50648 0.83333,-0.83334 0.34454,-0.51681 0.4888,-1.14985 0.83334,-1.66666 0.2179,-0.32686 0.65765,-0.48197 0.83333,-0.83334 0.12423,-0.24845 -0.12423,-0.58488 0,-0.83333 0.17568,-0.35137 0.65765,-0.48197 0.83333,-0.83333 0.24846,-0.49691 -0.24845,-1.16977 0,-1.66667 0.17569,-0.35137 0.65765,-0.48197 0.83334,-0.83333 0.12422,-0.24846 0,-0.55556 0,-0.83334 0,-0.55555 -0.10896,-1.1219 0,-1.66666 0.1936,-0.968 1.03174,-3.21429 1.66666,-4.16667 0.21791,-0.32686 0.61543,-0.50647 0.83334,-0.83333 0.10348,-0.15523 1.61326,-3.27994 1.66666,-3.33334 0.19642,-0.19642 0.63692,0.19642 0.83334,0 0.19642,-0.19642 -0.12423,-0.58488 0,-0.83333 0.17568,-0.35137 0.55555,-0.55556 0.83333,-0.83333 0.27778,-0.27778 0.55556,-0.55556 0.83333,-0.83334"
       id="path3911"
       inkscape:connector-curvature="0" />
    <text
       xml:space="preserve"
       style="font-size:20px;font-style:normal;font-weight:normal;line-height:125%;letter-spacing:0px;word-spacing:0px;fill:#ffffff;fill-opacity:1;stroke:none;font-family:Sans"
       x="30"
       y="340"
       id="text3913"
       sodipodi:linespacing="125%"><tspan
         sodipodi:role="line"
         id="tspan3915"
         x="30"
         y="340"
         style="text-align:center;text-anchor:middle">[battery level</tspan><tspan
         sodipodi:role="line"
         x="30"
         y="365"
         id="tspan3084"
         style="text-align:center;text-anchor:middle">indicator]</tspan></text>
    <path
       style="fill:none;stroke:#000000;stroke-width:1px;stroke-linecap:butt;stroke-linejoin:miter;stroke-opacity:1"
       d="m 149.02568,436.74811 c -2.63467,-1.976 -3.74408,-2.56253 -5.83334,-5 -0.90387,-1.05452 -1.59612,-2.27881 -2.5,-3.33333 -0.76696,-0.89479 -1.59464,-1.74554 -2.5,-2.5 -2.59878,-2.16566 -2.22713,-0.90891 -4.16666,-3.33333 -0.62566,-0.78208 -1.11111,-1.66667 -1.66667,-2.5 -0.83333,-0.83334 -1.74554,-1.59465 -2.5,-2.5 -0.64117,-0.76941 -1.0255,-1.7306 -1.66667,-2.5 -0.75446,-0.90536 -1.66666,-1.66667 -2.5,-2.5 -2.25882,-2.25883 -1.07451,-1.07451 -3.33333,-3.33334 -0.27778,-0.27777 -0.55556,-0.55555 -0.83333,-0.83333 -0.27778,-0.27778 -0.65765,-0.48197 -0.83334,-0.83333 -0.12422,-0.24846 0.12423,-0.58488 0,-0.83334 -0.17568,-0.35136 -0.65765,-0.48197 -0.83333,-0.83333 -0.12423,-0.24845 0.12423,-0.58488 0,-0.83333 -0.50977,-1.01954 -1.68801,-1.05768 -2.5,-1.66667 -0.62854,-0.4714 -1.11111,-1.11111 -1.66667,-1.66667 -1.11111,-1.11111 -2.22222,-2.22222 -3.33333,-3.33333 -0.55556,-0.55556 -1.19526,-1.03813 -1.66667,-1.66667 -0.37267,-0.4969 -0.39412,-1.22746 -0.83333,-1.66666 -0.43921,-0.43921 -1.22746,-0.39413 -1.66667,-0.83334 -0.4392,-0.4392 -0.39412,-1.22746 -0.83333,-1.66666 -0.19642,-0.19642 -0.58488,0.12422 -0.83333,0 -0.35137,-0.17569 -0.48197,-0.65765 -0.83334,-0.83334 -0.24845,-0.12422 -0.55555,0 -0.83333,0 -0.55556,-0.27777 -1.14986,-0.48879 -1.66667,-0.83333 -0.32686,-0.21791 -0.55555,-0.55556 -0.83333,-0.83333 -0.27778,-0.27778 -0.61543,-0.50648 -0.83333,-0.83334 -0.34454,-0.51681 -0.46066,-1.16976 -0.83334,-1.66666 -0.4714,-0.62854 -1.195257,-1.03813 -1.666657,-1.66667 -0.37268,-0.4969 -0.39413,-1.22746 -0.83334,-1.66667 -0.4392,-0.4392 -1.16976,-0.46065 -1.66666,-0.83333 -0.0229,-0.0172 -3.132514,-2.93168 -3.333344,-3.33333 -0.12422,-0.24846 0.15409,-0.60221 0,-0.83334 -0.43581,-0.65372 -1.11111,-1.11111 -1.66666,-1.66666 -0.55556,-0.55556 -1.11111,-1.11111 -1.66667,-1.66667 -0.27778,-0.27778 -0.61543,-0.50647 -0.83333,-0.83333 -0.34454,-0.51681 -0.46066,-1.16977 -0.83334,-1.66667 -0.4714,-0.62854 -1.11111,-1.11111 -1.66666,-1.66667 -0.27778,-0.27777 -0.65765,-0.48197 -0.83334,-0.83333 -0.12422,-0.24845 0.0878,-0.56981 0,-0.83333 -0.19642,-0.58926 -0.55555,-1.11111 -0.83333,-1.66667 -0.27778,-0.55556 -0.48879,-1.14986 -0.83333,-1.66667 -0.21791,-0.32686 -0.65765,-0.48197 -0.83334,-0.83333 -0.12422,-0.24845 0.12423,-0.58488 0,-0.83333 -0.17568,-0.35137 -0.65765,-0.48197 -0.83333,-0.83334 -0.12423,-0.24845 0.12423,-0.58488 0,-0.83333 -0.17568,-0.35136 -0.65765,-0.48197 -0.83333,-0.83333 -0.12423,-0.24846 0.12422,-0.58488 0,-0.83334 -0.17569,-0.35136 -0.65765,-0.48197 -0.83334,-0.83333 -0.12422,-0.24845 0.12423,-0.58488 0,-0.83333 -0.17568,-0.35137 -0.65765,-0.48197 -0.83333,-0.83334 -0.22604,-0.45207 0.22802,-3.10531 0,-3.33333 -0.19642,-0.19642 -0.58488,0.12423 -0.83333,0 -1.84255,-0.92127 -0.2586,-0.5172 -0.83334,-1.66667 -0.17568,-0.35136 -0.65765,-0.48197 -0.83333,-0.83333 -0.12423,-0.24845 0,-0.55556 0,-0.83333 -0.27778,-0.27778 -0.65765,-0.48197 -0.83333,-0.83334 -0.12423,-0.24845 0.19642,-0.63691 0,-0.83333 -0.19642,-0.19642 -0.63692,0.19642 -0.83334,0 -1.11111,-1.11111 1.38889,-0.83333 -0.83333,-0.83333"
       id="path3040"
       inkscape:connector-curvature="0" />
    <text
       xml:space="preserve"
       style="font-size:29.558424px;font-style:italic;font-weight:normal;line-height:125%;letter-spacing:0px;word-spacing:0px;fill:#cccccc;fill-opacity:1;stroke:none;font-family:Sans;-inkscape-font-specification:Sans Italic"
       x="233.68158"
       y="387.35938"
       id="text3806-0"
       sodipodi:linespacing="125%"
       transform="scale(0.6469434,1.5457303)"><tspan
         sodipodi:role="line"
         id="tspan3808-6"
         x="233.68158"
         y="387.35938"
         style="font-size:12.56232929px;fill:#cccccc">[Signal strength]</tspan></text>
    <text
       xml:space="preserve"
       style="font-size:14.70247173px;font-style:normal;font-weight:normal;line-height:125%;letter-spacing:0px;word-spacing:0px;fill:#ffffff;fill-opacity:1;stroke:none;font-family:Sans"
       x="289.20746"
       y="296.40561"
       id="text3773"
       sodipodi:linespacing="125%"
       transform="scale(0.65543732,1.5256989)"><tspan
         sodipodi:role="line"
         x="289.20746"
         y="296.40561"
         id="tspan3810"
         style="font-size:8.82148266px;fill:#ffffff" /></text>
    <text
       xml:space="preserve"
       style="font-size:40px;font-style:normal;font-weight:normal;line-height:125%;letter-spacing:0px;word-spacing:0px;fill:#000000;fill-opacity:1;stroke:none;font-family:Sans"
       x="45"
       y="415"
       id="text3044"
       sodipodi:linespacing="125%"><tspan
         sodipodi:role="line"
         id="tspan3046"
         x="45"
         y="415"
         style="font-size:20px;font-style:normal;font-variant:normal;font-weight:normal;font-stretch:normal;fill:#ffffff;font-family:Liberation Mono;-inkscape-font-specification:Liberation Mono">144</tspan></text>
    <text
       xml:space="preserve"
       style="font-size:40px;font-style:normal;font-weight:normal;line-height:125%;letter-spacing:0px;word-spacing:0px;fill:#000000;fill-opacity:1;stroke:none;font-family:Sans"
       x="135"
       y="415"
       id="text3044-0"
       sodipodi:linespacing="125%"><tspan
         sodipodi:role="line"
         id="tspan3046-4"
         x="135"
         y="415"
         style="font-size:16px;font-style:normal;font-variant:normal;font-weight:normal;font-stretch:normal;fill:#ffffff;font-family:Liberation Mono;-inkscape-font-specification:Liberation Mono">14</tspan></text>
    <text
       xml:space="preserve"
       style="font-size:40px;font-style:normal;font-weight:normal;line-height:125%;letter-spacing:0px;word-spacing:0px;fill:#000000;fill-opacity:1;stroke:none;font-family:Sans"
       x="175"
       y="415"
       id="text3044-0-7"
       sodipodi:linespacing="125%"><tspan
         sodipodi:role="line"
         x="175"
         y="415"
         style="font-size:16px;font-style:normal;font-variant:normal;font-weight:normal;font-stretch:normal;fill:#ffffff;font-family:Liberation Mono;-inkscape-font-specification:Liberation Mono"
         id="tspan3090">62</tspan></text>
    <text
       xml:space="preserve"
       style="font-size:40px;font-style:normal;font-weight:normal;line-height:125%;letter-spacing:0px;word-spacing:0px;fill:#000000;fill-opacity:1;stroke:none;font-family:Sans"
       x="-45"
       y="475"
       id="text3044-9"
       sodipodi:linespacing="125%"><tspan
         sodipodi:role="line"
         id="tspan3046-6"
         x="-45"
         y="475"
         style="font-size:20px;font-style:normal;font-variant:normal;font-weight:normal;font-stretch:normal;fill:#ffffff;font-family:Liberation Mono;-inkscape-font-specification:Liberation Mono">144</tspan></text>
    <text
       xml:space="preserve"
       style="font-size:40px;font-style:normal;font-weight:normal;line-height:125%;letter-spacing:0px;word-spacing:0px;fill:#000000;fill-opacity:1;stroke:none;font-family:Sans"
       x="70"
       y="280"
       id="text3052"
       sodipodi:linespacing="125%"><tspan
         sodipodi:role="line"
         id="tspan3054"
         x="70"
         y="280"
         style="font-style:normal;font-variant:normal;font-weight:bold;font-stretch:normal;fill:#ffffff;font-family:Liberation Mono;-inkscape-font-specification:Liberation Mono Bold">220</tspan></text>
    <text
       xml:space="preserve"
       style="font-size:40px;font-style:normal;font-weight:normal;line-height:125%;letter-spacing:0px;word-spacing:0px;fill:#000000;fill-opacity:1;stroke:none;font-family:Sans"
       x="390"
       y="520"
       id="text3052-1"
       sodipodi:linespacing="125%"><tspan
         sodipodi:role="line"
         id="tspan3054-1"
         x="390"
         y="520"
         style="font-style:normal;font-variant:normal;font-weight:bold;font-stretch:normal;fill:#ffffff;font-family:Liberation Mono;-inkscape-font-specification:Liberation Mono Bold">176</tspan></text>
    <text
       xml:space="preserve"
       style="font-size:40px;font-style:normal;font-weight:normal;line-height:125%;letter-spacing:0px;word-spacing:0px;fill:#000000;fill-opacity:1;stroke:none;font-family:Sans"
       x="228"
       y="592"
       id="text3044-9-4"
       sodipodi:linespacing="125%"><tspan
         sodipodi:role="line"
         id="tspan3046-6-7"
         x="228"
         y="592"
         style="font-size:16px;font-style:normal;font-variant:normal;font-weight:normal;font-stretch:normal;fill:#ffffff;font-family:Liberation Mono;-inkscape-font-specification:Liberation Mono">32</tspan></text>
    <text
       xml:space="preserve"
       style="font-size:40px;font-style:normal;font-weight:normal;line-height:125%;letter-spacing:0px;word-spacing:0px;fill:#000000;fill-opacity:1;stroke:none;font-family:Sans"
       x="70"
       y="620"
       id="text3044-9-5"
       sodipodi:linespacing="125%"><tspan
         sodipodi:role="line"
         id="tspan3046-6-5"
         x="70"
         y="620"
         style="font-size:16px;font-style:normal;font-variant:normal;font-weight:normal;font-stretch:normal;fill:#ffffff;font-family:Liberation Mono;-inkscape-font-specification:Liberation Mono">150</tspan></text>
    <text
       xml:space="preserve"
       style="font-size:40px;font-style:normal;font-variant:normal;font-weight:normal;font-stretch:normal;line-height:125%;letter-spacing:0px;word-spacing:0px;fill:#000000;fill-opacity:1;stroke:none;font-family:FreeSerif;-inkscape-font-specification:FreeSerif"
       x="3.4375896"
       y="190.60976"
       id="text3053"
       sodipodi:linespacing="125%"
       transform="translate(0,424)"><tspan
         sodipodi:role="line"
         id="tspan3055" /></text>
    <text
       xml:space="preserve"
       style="font-size:40px;font-style:normal;font-weight:normal;line-height:125%;letter-spacing:0px;word-spacing:0px;fill:#000000;fill-opacity:1;stroke:none;font-family:Sans"
       x="170"
       y="620"
       id="text3044-9-5-9"
       sodipodi:linespacing="125%"><tspan
         sodipodi:role="line"
         id="tspan3046-6-5-2"
         x="170"
         y="620"
         style="font-size:16px;font-style:normal;font-variant:normal;font-weight:normal;font-stretch:normal;fill:#ffffff;font-family:Liberation Mono;-inkscape-font-specification:Liberation Mono">70</tspan></text>
    <text
       xml:space="preserve"
       style="font-size:40px;font-style:normal;font-variant:normal;font-weight:normal;font-stretch:normal;line-height:125%;letter-spacing:0px;word-spacing:0px;fill:#000000;fill-opacity:1;stroke:none;font-family:FreeSerif;-inkscape-font-specification:FreeSerif"
       x="163.46747"
       y="134.52545"
       id="text3059"
       sodipodi:linespacing="125%"
       transform="translate(0,424)"><tspan
         sodipodi:role="line"
         id="tspan3061" /></text>
    <text
       xml:space="preserve"
       style="font-size:40px;font-style:normal;font-weight:normal;line-height:125%;letter-spacing:0px;word-spacing:0px;fill:#000000;fill-opacity:1;stroke:none;font-family:Sans"
       x="224"
       y="515"
       id="text3044-9-4-0"
       sodipodi:linespacing="125%"><tspan
         sodipodi:role="line"
         id="tspan3046-6-7-7"
         x="224"
         y="515"
         style="font-size:16px;font-style:normal;font-variant:normal;font-weight:normal;font-stretch:normal;fill:#ffffff;font-family:Liberation Mono;-inkscape-font-specification:Liberation Mono">111</tspan></text>
    <text
       xml:space="preserve"
       style="font-size:40px;font-style:normal;font-weight:normal;line-height:125%;letter-spacing:0px;word-spacing:0px;fill:#000000;fill-opacity:1;stroke:none;font-family:Sans"
       x="226"
       y="438"
       id="text3044-9-4-53"
       sodipodi:linespacing="125%"><tspan
         sodipodi:role="line"
         id="tspan3046-6-7-5"
         x="226"
         y="438"
         style="font-size:16px;font-style:normal;font-variant:normal;font-weight:normal;font-stretch:normal;fill:#ffffff;font-family:Liberation Mono;-inkscape-font-specification:Liberation Mono">16</tspan></text>
    <text
       xml:space="preserve"
       style="font-size:40px;font-style:normal;font-weight:normal;line-height:125%;letter-spacing:0px;word-spacing:0px;fill:#000000;fill-opacity:1;stroke:none;font-family:Sans"
       x="225"
       y="455"
       id="text3044-9-4-5"
       sodipodi:linespacing="125%"><tspan
         sodipodi:role="line"
         id="tspan3046-6-7-6"
         x="225"
         y="455"
         style="font-size:16px;font-style:normal;font-variant:normal;font-weight:normal;font-stretch:normal;fill:#ffffff;font-family:Liberation Mono;-inkscape-font-specification:Liberation Mono">17</tspan></text>
    <text
       xml:space="preserve"
       style="font-size:40px;font-style:normal;font-variant:normal;font-weight:normal;font-stretch:normal;line-height:125%;letter-spacing:0px;word-spacing:0px;fill:#000000;fill-opacity:1;stroke:none;font-family:FreeSerif;-inkscape-font-specification:FreeSerif"
       x="161.64441"
       y="7.3672066"
       id="text3240"
       sodipodi:linespacing="125%"
       transform="translate(0,424)"><tspan
         sodipodi:role="line"
         id="tspan3242" /></text>
    <text
       xml:space="preserve"
       style="font-size:7.2243433px;font-style:normal;font-weight:normal;line-height:125%;letter-spacing:0px;word-spacing:0px;fill:#ffffff;fill-opacity:1;stroke:none;font-family:Sans"
       x="1.4485614"
       y="428.30591"
       id="text3853-7"
       sodipodi:linespacing="125%"
       transform="scale(0.7632571,1.3101745)"><tspan
         sodipodi:role="line"
         id="tspan3855-8"
         x="1.4485614"
         y="428.30591"
         style="font-size:10.83651447px;fill:#ffffff">Mode: [preset/scan]</tspan></text>
    <text
       xml:space="preserve"
       style="font-size:27.15912628px;font-style:normal;font-variant:normal;font-weight:normal;font-stretch:normal;line-height:125%;letter-spacing:0px;word-spacing:0px;fill:#000000;fill-opacity:1;stroke:none;font-family:FreeSerif;-inkscape-font-specification:FreeSerif"
       x="229.5535"
       y="345.94928"
       id="text3191-8"
       sodipodi:linespacing="125%"
       transform="scale(0.67897817,1.4728014)"><tspan
         sodipodi:role="line"
         id="tspan3193-9"
         x="229.5535"
         y="345.94928"
         style="font-size:11.54262924px;font-style:normal;font-variant:normal;font-weight:normal;font-stretch:normal;fill:#f2f2f2;font-family:Sans;-inkscape-font-specification:Sans" /></text>
    <text
       xml:space="preserve"
       style="font-size:40px;font-style:normal;font-variant:normal;font-weight:normal;font-stretch:normal;line-height:125%;letter-spacing:0px;word-spacing:0px;fill:#000000;fill-opacity:1;stroke:none;font-family:FreeSerif;-inkscape-font-specification:FreeSerif"
       x="188.16873"
       y="498.14563"
       id="text3220"
       sodipodi:linespacing="125%"><tspan
         sodipodi:role="line"
         x="188.16873"
         y="498.14563"
         style="font-size:10px;font-style:normal;font-variant:normal;font-weight:normal;font-stretch:normal;text-align:center;text-anchor:middle;fill:#f2f2f2;font-family:Sans;-inkscape-font-specification:Sans"
         id="tspan3226">[radio on/off</tspan><tspan
         sodipodi:role="line"
         x="188.16873"
         y="510.64563"
         id="tspan3224"
         style="font-size:10px;font-style:normal;font-variant:normal;font-weight:normal;font-stretch:normal;text-align:center;text-anchor:middle;fill:#f2f2f2;font-family:Sans;-inkscape-font-specification:Sans">icon]</tspan></text>
    <text
       xml:space="preserve"
       style="font-size:9.32293701px;font-style:normal;font-weight:normal;line-height:125%;letter-spacing:0px;word-spacing:0px;fill:#ffffff;fill-opacity:1;stroke:none;font-family:Sans"
       x="202.12752"
       y="342.6611"
       id="text3853-7-2"
       sodipodi:linespacing="125%"
       transform="scale(0.78194409,1.2788638)"><tspan
         sodipodi:role="line"
         id="tspan3855-8-3"
         x="202.12752"
         y="342.6611"
         style="font-size:13.98440552px;fill:#ffffff">hh: mm: ss </tspan></text>
    <text
       xml:space="preserve"
       style="font-size:21.91000366px;font-style:normal;font-variant:normal;font-weight:normal;font-stretch:normal;line-height:125%;letter-spacing:0px;word-spacing:0px;fill:#000000;fill-opacity:1;stroke:none;font-family:FreeSerif;-inkscape-font-specification:FreeSerif"
       x="224.10802"
       y="325.461"
       id="text3629"
       sodipodi:linespacing="125%"
       transform="scale(0.71466475,1.3992575)"><tspan
         sodipodi:role="line"
         id="tspan3631"
         x="224.10802"
         y="325.461"
         style="font-size:15.32886696px;font-style:normal;font-variant:normal;font-weight:normal;font-stretch:normal;fill:#f9f9f9;font-family:Sans;-inkscape-font-specification:Sans">YY/MM/DD</tspan></text>
  </g>
</svg>
