<?xml version="1.0" encoding="UTF-8" standalone="no"?>
<!-- Created with Inkscape (http://www.inkscape.org/) -->

<svg
   xmlns:dc="http://purl.org/dc/elements/1.1/"
   xmlns:cc="http://creativecommons.org/ns#"
   xmlns:rdf="http://www.w3.org/1999/02/22-rdf-syntax-ns#"
   xmlns:svg="http://www.w3.org/2000/svg"
   xmlns="http://www.w3.org/2000/svg"
   xmlns:sodipodi="http://sodipodi.sourceforge.net/DTD/sodipodi-0.dtd"
   xmlns:inkscape="http://www.inkscape.org/namespaces/inkscape"
   width="220"
   height="176"
   id="svg2985"
   version="1.1"
   inkscape:version="0.48.4 r9939"
   sodipodi:docname="2.svg">
  <defs
     id="defs2987" />
  <sodipodi:namedview
     id="base"
     pagecolor="#191919"
     bordercolor="#666666"
     borderopacity="1.0"
     inkscape:pageopacity="1"
     inkscape:pageshadow="2"
     inkscape:zoom="2.327212"
     inkscape:cx="155.02516"
     inkscape:cy="69.95385"
     inkscape:current-layer="layer1"
     inkscape:document-units="px"
     showgrid="true"
     showguides="true"
     inkscape:guide-bbox="true"
     inkscape:window-width="800"
     inkscape:window-height="878"
     inkscape:window-x="800"
     inkscape:window-y="0"
     inkscape:window-maximized="0">
    <inkscape:grid
       type="xygrid"
       id="grid3117"
       empspacing="5"
       visible="true"
       enabled="true"
       snapvisiblegridlinesonly="true" />
  </sodipodi:namedview>
  <metadata
     id="metadata2990">
    <rdf:RDF>
      <cc:Work
         rdf:about="">
        <dc:format>image/svg+xml</dc:format>
        <dc:type
           rdf:resource="http://purl.org/dc/dcmitype/StillImage" />
        <dc:title />
      </cc:Work>
    </rdf:RDF>
  </metadata>
  <g
     id="layer1"
     inkscape:label="Layer 1"
     inkscape:groupmode="layer"
     transform="translate(0,-424)">
    <rect
       style="fill:#ff0027;fill-opacity:1;stroke:#000000;stroke-width:0.54027927;stroke-opacity:1"
       id="rect3763"
       width="143.45972"
       height="143.45972"
       x="0.27013963"
       y="424.27014" />
    <text
       xml:space="preserve"
       style="font-size:40px;font-style:normal;font-weight:bold;text-align:center;line-height:125%;letter-spacing:0px;word-spacing:0px;text-anchor:middle;fill:#ffffff;fill-opacity:1;stroke:none;font-family:Sans;-inkscape-font-specification:Sans Bold"
       x="70.591553"
       y="486.72412"
       id="text3765"
       sodipodi:linespacing="125%"><tspan
         sodipodi:role="line"
         id="tspan3767"
         x="70.591553"
         y="486.72412"
         style="font-size:25px;fill:#ffffff">[ALBUM</tspan><tspan
         sodipodi:role="line"
         x="70.591553"
         y="517.97412"
         id="tspan3769"
         style="font-size:25px;fill:#ffffff">ART]</tspan></text>
    <g
       id="g3494"
       transform="matrix(0.6798719,0,0,0.77232717,48.964843,131.32663)">
      <rect
         y="459.25433"
         x="162.06291"
         height="102.72541"
         width="88.383957"
         id="rect3771-8"
         style="fill:#b646aa;fill-opacity:0.66666667;stroke:#000000;stroke-width:1.84016609;stroke-opacity:1" />
      <rect
         y="425.06439"
         x="161.6554"
         height="137.47505"
         width="88.383957"
         id="rect3771"
         style="fill:#6699cc;fill-opacity:0;stroke:#000000;stroke-width:2.12877631;stroke-opacity:1" />
    </g>
    <text
       xml:space="preserve"
       style="font-size:2037.57568359px;font-style:normal;font-weight:bold;line-height:125%;letter-spacing:0px;word-spacing:0px;fill:#cccccc;fill-opacity:1;stroke:none;font-family:Sans;-inkscape-font-specification:Sans Bold"
       x="25.586752"
       y="586.24091"
       id="text3802"
       sodipodi:linespacing="125%"
       transform="scale(0.97706816,1.02347)"><tspan
         sodipodi:role="line"
         id="tspan3804"
         x="25.586752"
         y="586.24091"
         style="font-size:42.88890839px;fill:#cccccc">TITLE</tspan></text>
    <text
       xml:space="preserve"
       style="font-size:44.11089325px;font-style:italic;font-weight:normal;line-height:125%;letter-spacing:0px;word-spacing:0px;fill:#cccccc;fill-opacity:1;stroke:none;font-family:Sans;-inkscape-font-specification:Sans Italic"
       x="167.26694"
       y="529.20258"
       id="text3806"
       sodipodi:linespacing="125%"
       transform="scale(0.90680544,1.1027724)"><tspan
         sodipodi:role="line"
         id="tspan3808"
         x="167.26694"
         y="529.20258"
         style="font-size:18.74712944px;fill:#cccccc">artist</tspan></text>
    <text
       xml:space="preserve"
       style="font-size:40px;font-style:normal;font-weight:normal;line-height:125%;letter-spacing:0px;word-spacing:0px;fill:#000000;fill-opacity:1;stroke:none;font-family:Sans"
       x="495.83334"
       y="300"
       id="text3835"
       sodipodi:linespacing="125%"><tspan
         sodipodi:role="line"
         id="tspan3837"
         x="495.83334"
         y="300"
         style="font-size:12px" /><tspan
         sodipodi:role="line"
         x="495.83334"
         y="315"
         style="font-size:12px"
         id="tspan3042" /></text>
    <text
       xml:space="preserve"
       style="font-size:8px;font-style:normal;font-weight:normal;line-height:125%;letter-spacing:0px;word-spacing:0px;fill:#ffffff;fill-opacity:1;stroke:none;font-family:Sans"
       x="145"
       y="390"
       id="text3853"
       sodipodi:linespacing="125%"><tspan
         sodipodi:role="line"
         id="tspan3855"
         x="145"
         y="390"
         style="font-size:11px;fill:#ffffff">volume level</tspan></text>
    <path
       style="fill:none;stroke:#000000;stroke-width:0.44362369px;stroke-linecap:butt;stroke-linejoin:miter;stroke-opacity:1"
       d="m 225.15073,464.15566 c 0.53626,-0.22653 1.34067,-1.13267 1.6088,-0.6796 0.26812,0.45307 -2.20837,0.6796 -1.6088,0.6796 0.72196,0 1.32608,-0.48671 2.01101,-0.6796 0.12718,-0.0358 0.28228,0.0507 0.40219,0 0.16959,-0.0716 0.23261,-0.26817 0.40219,-0.33981 0.10401,-0.0439 2.12813,0 2.4132,0 0.67033,0 1.34066,0 2.01099,0 0.13407,0 0.26814,0 0.40222,0 0.13405,0 0.28228,-0.0507 0.40219,0 0.16957,0.0716 0.23262,0.26817 0.4022,0.33981 0.11991,0.0507 0.28228,-0.0507 0.40219,0 0.16959,0.0716 0.23263,0.26816 0.4022,0.3398 0.11991,0.0507 0.2823,-0.0507 0.40221,0 0.71557,0.30228 0.0888,0.37733 0.80439,0.6796 0.11992,0.0507 0.28229,-0.0507 0.4022,0 0.18626,0.0787 1.37225,1.15936 1.6088,1.35921 0.21175,0.1789 1.09919,0.83793 1.2066,1.01941 0.06,0.10131 -0.0599,0.23849 0,0.33979 0.16957,0.28656 0.63482,0.39307 0.80439,0.67961 0.06,0.10132 -0.0599,0.23849 0,0.3398 0.92036,1.55514 -0.16669,-1.44192 0.80441,1.01941 0.0424,0.10745 -0.06,0.23849 0,0.3398 0.16957,0.28654 0.6348,0.39305 0.8044,0.67961 0.06,0.1013 -0.0424,0.23234 0,0.33979 0.9711,2.46133 -0.11596,-0.53573 0.80439,1.01941 0.0599,0.10131 -0.06,0.23849 0,0.3398 0.0847,0.14327 0.31741,0.19653 0.4022,0.3398 0.06,0.10131 -0.06,0.2385 0,0.3398 0.0848,0.14328 0.31741,0.19653 0.4022,0.3398 0.11991,0.20263 -0.11991,0.47698 0,0.67961 0.0848,0.14327 0.29703,0.20652 0.40219,0.3398 0.88612,0.17112 0.21261,0.69904 0.40222,1.01941 0.0847,0.14327 0.31741,0.19653 0.40219,0.3398 0.0599,0.10131 -0.06,0.23848 0,0.3398 0.0847,0.14327 0.31741,0.19653 0.4022,0.33981 0.0894,0.15119 -0.0613,1.20377 0,1.3592 0.0599,0.15196 0.31741,0.19653 0.40221,0.3398 0.06,0.10132 -0.06,0.23848 0,0.3398 0.0847,0.14327 0.3174,0.19652 0.4022,0.33981 0.11991,0.20262 -0.11992,0.47698 0,0.67961 0.0847,0.14325 0.34223,0.18782 0.40219,0.33979 0.0613,0.15542 -0.0894,1.208 0,1.3592 0.0848,0.14328 0.31741,0.19653 0.40219,0.33981 0.11992,0.20261 -0.0848,0.46469 0,0.6796 0.0947,0.24028 0.3074,0.43933 0.40221,0.6796 0.0847,0.21491 -0.11991,0.47698 0,0.67961 0.0847,0.14327 0.31741,0.19652 0.40219,0.3398 0.13169,0.2225 -0.11897,1.39745 0,1.69901 0.0948,0.24027 0.30741,0.43932 0.40221,0.6796 0.0424,0.10745 0,0.22653 0,0.33981 0,0.29165 -0.0784,1.84 0,2.03881 0.59179,1.49995 0.40219,-1.23456 0.40219,1.0194 0,0.25976 -0.0566,2.28301 0,2.37861 0.0847,0.14327 0.34225,0.18784 0.40221,0.33981 0.0847,0.2149 0,0.45306 0,0.67959 0,0.56634 0,1.13268 0,1.69901 0,0.22654 -0.0848,0.4647 0,0.67961 0.0947,0.24027 0.3074,0.43933 0.4022,0.6796 0.1079,0.27351 -0.12851,1.14207 0,1.35921 0.0848,0.14327 0.3174,0.19653 0.4022,0.3398 0.06,0.10131 0,0.22653 0,0.33981 0.13406,0.11326 0.3174,0.19652 0.40219,0.33979 0.06,0.10131 -0.0599,0.23849 0,0.33981 0.0848,0.14326 0.34224,0.18783 0.4022,0.3398 0.0847,0.21491 0,0.45306 0,0.6796 0,0.11327 -0.06,0.2385 0,0.3398 0.0847,0.14327 0.31741,0.19653 0.4022,0.3398 0.0599,0.10131 -0.0948,0.25971 0,0.3398 0.83217,0.70307 -0.0325,-1.07437 0.80441,0.33981 0.06,0.1013 -0.06,0.23849 0,0.3398 0.0847,0.14327 0.3174,0.19652 0.40219,0.33981 0.06,0.1013 -0.06,0.23848 0,0.3398 0.24132,0.40775 0.96528,0.61164 1.20661,1.0194 0.06,0.10131 -0.0948,0.25971 0,0.3398 0.0947,0.0801 0.30738,-0.0801 0.40219,0 0.0947,0.0801 -0.0599,0.23849 0,0.3398 0.0848,0.14327 0.3174,0.19653 0.4022,0.33981 0.06,0.1013 -0.0947,0.2597 0,0.33979 0.0947,0.0801 0.28229,-0.0507 0.4022,0 0.88929,0.37567 0.1248,0.21091 0.4022,0.67961 0.83692,1.41417 -0.0277,-0.36326 0.80439,0.3398 0.0947,0.0801 -0.0947,0.25971 0,0.3398 0.0947,0.0801 0.28229,-0.0507 0.4022,0 1.67386,0.70709 -0.42996,-0.0235 0.4022,0.67961 0.0948,0.0801 0.3074,-0.0801 0.40221,0 0.0948,0.0801 -0.0947,0.25971 0,0.3398 0.0948,0.0801 0.30739,-0.0801 0.40219,0 0.83217,0.70306 -1.27166,-0.0275 0.40221,0.6796 1.07252,0 -0.13407,-0.11326 0.40219,0.3398 0.0947,0.0801 0.40219,-0.11326 0.40219,0 0,0.56349 -0.56402,0.23827 -0.80438,0.3398 -0.16959,0.0716 -0.23263,0.26817 -0.40221,0.3398 -0.11991,0.0507 -0.28229,-0.0507 -0.40219,0 -0.16959,0.0716 -0.23262,0.26817 -0.40221,0.33981 -0.23983,0.10131 -0.56457,-0.10131 -0.8044,0 -0.16958,0.0716 -0.23261,0.26817 -0.40219,0.3398 -0.11991,0.0507 -0.28229,-0.0507 -0.4022,0 -0.16959,0.0716 -0.23262,0.26817 -0.4022,0.33979 -0.23983,0.10133 -0.6148,-0.16017 -0.8044,0 -0.0948,0.0801 0.0947,0.25971 0,0.33981 -0.0948,0.0801 -0.28229,-0.0507 -0.40219,0 -0.16959,0.0716 -0.23263,0.26818 -0.40222,0.33981 -0.23981,0.1013 -0.61479,-0.16019 -0.80439,0 -0.0947,0.0801 0.0947,0.2597 0,0.3398 -0.0947,0.0801 -0.28228,-0.0507 -0.40219,0 -0.16959,0.0716 -0.26814,0.22653 -0.40221,0.33981 -0.13407,0.11325 -0.31742,0.19651 -0.4022,0.33979 -0.11991,0.20262 0.11991,0.47699 0,0.67961 -0.0848,0.14326 -0.31741,0.19653 -0.4022,0.33979 -0.11992,0.20262 0.11992,0.47699 0,0.67961 -0.0848,0.14327 -0.3174,0.19653 -0.4022,0.3398 -0.0529,0.0893 0,1.18151 0,1.3592 0,0.67961 0,1.35922 0,2.03881 0,0.15303 -0.0612,0.916 0,1.0194 0.0848,0.14328 0.31741,0.19654 0.4022,0.33981 0.12757,0.21554 -0.13063,1.47827 0,1.69902 0.0847,0.14326 0.31741,0.19652 0.4022,0.3398 0.10663,0.18017 -0.0911,1.46784 0,1.69901 0.0599,0.15195 0.31741,0.19652 0.4022,0.33979 0.21426,0.36204 -0.21426,0.31757 0,0.67961 0.0848,0.14327 0.34225,0.18783 0.40221,0.3398 0.0847,0.21491 0,0.45307 0,0.6796 0,0.56634 0,1.13267 0,1.69901 0,0.22654 0,0.45307 0,0.67961 0,0.11326 -0.06,0.23849 0,0.33979 0.0847,0.14328 0.34223,0.18784 0.40219,0.33981 0.12717,0.32236 0,0.67959 0,1.0194 0,0.67961 0,1.35922 0,2.03881 0,0.23465 -0.0611,1.2559 0,1.35921 0.0848,0.14327 0.34224,0.18784 0.4022,0.33981 0.36618,0.92811 -0.0693,0.45695 -0.4022,1.0194 -0.06,0.10131 0,0.22653 0,0.3398 0,0.11326 0,0.22653 0,0.3398 0,0.67961 0,1.35921 0,2.03881 0,0.15303 -0.0612,0.91598 0,1.0194 0.0848,0.14328 0.3174,0.19654 0.4022,0.33981 0.0529,0.0893 0,1.18151 0,1.35921 0,0.79286 0,1.58574 0,2.3786 0,0.11328 0,0.22654 0,0.33981 0,0.11327 0.0599,0.23849 0,0.33979 -0.0848,0.14329 -0.3174,0.19654 -0.4022,0.33981 -0.06,0.10131 0,0.22653 0,0.3398 0,0.32924 0.0799,1.8362 0,2.03882 -0.0947,0.24027 -0.3074,0.43932 -0.40219,0.6796 -0.0424,0.10745 0.0424,0.23234 0,0.3398 -0.0947,0.24028 -0.30741,0.43933 -0.40221,0.6796 -0.0847,0.21491 0.0848,0.4647 0,0.67961 -0.0947,0.24027 -0.30739,0.43932 -0.4022,0.6796 -0.0848,0.21491 0.11991,0.47698 0,0.67961 -0.0848,0.14326 -0.31741,0.19652 -0.4022,0.3398 -0.11992,0.20261 0.11992,0.47698 0,0.6796 -0.0848,0.14326 -0.3174,0.19653 -0.4022,0.3398 -0.0599,0.10131 0.0424,0.23234 0,0.3398 -0.0947,0.24028 -0.3074,0.43933 -0.40219,0.6796 -0.0424,0.10746 0.06,0.2385 0,0.3398 -0.16959,0.28655 -0.63482,0.39307 -0.8044,0.67961 -0.06,0.1013 0.0599,0.23849 0,0.3398 -0.12811,0.21644 -1.69497,1.43201 -2.01101,1.69901 -1.33391,1.12699 0.18961,-0.32037 -0.40219,0.67961 -0.24133,0.40775 -0.96528,0.61164 -1.2066,1.0194 -0.06,0.10131 0.0599,0.2385 0,0.3398 -0.0847,0.14328 -0.26813,0.22653 -0.4022,0.3398 -0.23655,0.19985 -1.51567,1.20186 -1.6088,1.35921 -0.06,0.10131 0.06,0.23849 0,0.3398 -0.0848,0.14327 -0.26813,0.22654 -0.4022,0.3398 -0.13406,0.11327 -0.2326,0.26817 -0.40219,0.3398 -0.11992,0.0507 -0.3074,-0.0801 -0.4022,0 -0.0948,0.0801 0.06,0.2385 0,0.3398 -0.0385,0.0651 -1.53181,1.32669 -1.60881,1.35921 -0.55477,0.23436 -0.35975,-0.41152 -0.80439,0.3398 -0.27738,0.46872 0.48708,0.30395 -0.4022,0.67961 -0.11991,0.0506 -0.28229,-0.0507 -0.40219,0 -0.16959,0.0716 -0.23262,0.26817 -0.40221,0.3398 -0.11992,0.0506 -0.28228,-0.0507 -0.4022,0 -0.14312,0.0604 -0.66128,0.61915 -0.8044,0.67961 -0.1199,0.0506 -0.28228,-0.0507 -0.4022,0 -1.67386,0.70707 0.42997,-0.0234 -0.4022,0.67959 -0.0947,0.0801 -0.28227,-0.0506 -0.40219,0 -1.33393,1.12699 0.37919,-0.16018 -0.80441,0.33981 -0.33915,0.14327 -0.46523,0.53633 -0.80439,0.6796 -0.32176,0.13593 -0.88484,-0.13591 -1.20661,0 -0.16958,0.0716 -0.23261,0.26817 -0.40219,0.3398 -0.23983,0.10132 -0.56458,-0.1013 -0.8044,0 -0.16958,0.0716 -0.2126,0.3398 -0.40219,0.3398 -0.18961,0 -0.21261,-0.3398 -0.40221,-0.3398 -0.1896,0 -0.2126,0.3398 -0.4022,0.3398 -0.18959,0 -0.4022,-0.1796 -0.4022,-0.3398 0,-0.11326 0.28228,0.0507 0.4022,0 0.16959,-0.0716 0.26814,-0.22653 0.4022,-0.3398"
       id="path3807"
       inkscape:connector-curvature="0" />
    <text
       xml:space="preserve"
       style="font-size:10.39467907px;font-style:normal;font-weight:normal;text-align:center;line-height:125%;letter-spacing:0px;word-spacing:0px;text-anchor:middle;fill:#ffffff;fill-opacity:1;stroke:none;font-family:Sans"
       x="311.7598"
       y="464.65213"
       id="text3809"
       sodipodi:linespacing="125%"
       transform="scale(0.92706552,1.0786724)"><tspan
         sodipodi:role="line"
         id="tspan3811"
         x="311.7598"
         y="464.65213">song progress</tspan><tspan
         sodipodi:role="line"
         x="311.7598"
         y="477.64548"
         id="tspan3813">bar</tspan></text>
    <flowRoot
       xml:space="preserve"
       id="flowRoot3815"
       style="font-size:40px;font-style:normal;font-weight:normal;line-height:125%;letter-spacing:0px;word-spacing:0px;fill:#000000;fill-opacity:1;stroke:none;font-family:Sans"><flowRegion
         id="flowRegion3817"><rect
           id="rect3819"
           width="111.66666"
           height="65.833336"
           x="85.833336"
           y="465" /></flowRegion><flowPara
         id="flowPara3821">Format</flowPara></flowRoot>    <flowRoot
       xml:space="preserve"
       id="flowRoot3823"
       style="font-size:20px;font-style:normal;font-weight:normal;line-height:125%;letter-spacing:0px;word-spacing:0px;fill:#ffffff;fill-opacity:1;stroke:none;font-family:Sans"
       transform="translate(-174.45768,199.8099)"><flowRegion
         id="flowRegion3825"><rect
           id="rect3827"
           width="568.33331"
           height="99.166664"
           x="75.833336"
           y="470.83334"
           style="font-size:20px;fill:#ffffff" /></flowRegion><flowPara
         id="flowPara3829"
         style="font-size:10px;fill:#ffffff">[format] may not be useful</flowPara></flowRoot>    <g
       id="g3132"
       transform="matrix(0.92958834,0,0,0.91309986,144.02847,20.148691)">
      <rect
         y="460.16824"
         x="0.38701266"
         height="139.44473"
         width="14.225975"
         id="rect3113-2"
         style="fill:#ffffff;fill-opacity:1;stroke:#393939;stroke-width:0.77402532;stroke-opacity:1" />
      <rect
         y="471.24442"
         x="0.37174478"
         height="128.38383"
         width="14.256511"
         id="rect3113"
         style="fill:#339900;fill-opacity:1;stroke:#393939;stroke-width:0.74348956;stroke-opacity:1" />
    </g>
    <path
       style="fill:none;stroke:#000000;stroke-width:1px;stroke-linecap:butt;stroke-linejoin:miter;stroke-opacity:1"
       d="m 148.16014,459.3317 c 0,-2.22223 0,-4.44445 0,-6.66667 0,-0.83333 -0.22894,-1.69873 0,-2.5 0.34127,-1.19446 1.16213,-2.19814 1.66666,-3.33333 0.60754,-1.36695 1.15546,-2.76085 1.66667,-4.16667 1.03715,-2.85216 1.95299,-6.40598 3.33333,-9.16667 0.44791,-0.8958 1.34995,-1.54985 1.66667,-2.5 0,-5.9106 -0.58926,-0.48815 0.83333,-3.33333 0.24846,-0.4969 -0.39283,-1.27383 0,-1.66667 0.19642,-0.19642 0.63692,0.19642 0.83334,0 0.41666,-0.41666 -0.41667,-2.08333 0,-2.5 0.19642,-0.19642 0.7091,0.24846 0.83333,0 0.24845,-0.4969 -0.17568,-1.13962 0,-1.66666 0.12423,-0.37268 0.70911,-0.46066 0.83333,-0.83334 0.35137,-1.05409 -0.35136,-2.27924 0,-3.33333 0.12423,-0.37268 0.65765,-0.48197 0.83334,-0.83333 0.24845,-0.49691 -0.24846,-1.16977 0,-1.66667 0.17568,-0.35137 0.65765,-0.48197 0.83333,-0.83334 0.24845,-0.4969 -0.24845,-1.16976 0,-1.66666 0.17568,-0.35137 0.61543,-0.50648 0.83333,-0.83334 0.34454,-0.51681 0.4888,-1.14985 0.83334,-1.66666 0.2179,-0.32686 0.65765,-0.48197 0.83333,-0.83334 0.12423,-0.24845 -0.12423,-0.58488 0,-0.83333 0.17568,-0.35137 0.65765,-0.48197 0.83333,-0.83333 0.24846,-0.49691 -0.24845,-1.16977 0,-1.66667 0.17569,-0.35137 0.65765,-0.48197 0.83334,-0.83333 0.12422,-0.24846 0,-0.55556 0,-0.83334 0,-0.55555 -0.10896,-1.1219 0,-1.66666 0.1936,-0.968 1.03174,-3.21429 1.66666,-4.16667 0.21791,-0.32686 0.61543,-0.50647 0.83334,-0.83333 0.10348,-0.15523 1.61326,-3.27994 1.66666,-3.33334 0.19642,-0.19642 0.63692,0.19642 0.83334,0 0.19642,-0.19642 -0.12423,-0.58488 0,-0.83333 0.17568,-0.35137 0.55555,-0.55556 0.83333,-0.83333 0.27778,-0.27778 0.55556,-0.55556 0.83333,-0.83334"
       id="path3911"
       inkscape:connector-curvature="0" />
    <text
       xml:space="preserve"
       style="font-size:20px;font-style:normal;font-weight:normal;line-height:125%;letter-spacing:0px;word-spacing:0px;fill:#ffffff;fill-opacity:1;stroke:none;font-family:Sans"
       x="30"
       y="340"
       id="text3913"
       sodipodi:linespacing="125%"><tspan
         sodipodi:role="line"
         id="tspan3915"
         x="30"
         y="340"
         style="text-align:center;text-anchor:middle">[battery level</tspan><tspan
         sodipodi:role="line"
         x="30"
         y="365"
         id="tspan3084"
         style="text-align:center;text-anchor:middle">indicator]</tspan></text>
    <rect
       style="fill:#ffff00;fill-opacity:1;stroke:#393939;stroke-width:0.69889343000000004;stroke-opacity:1"
       id="rect3036"
       width="13.301107"
       height="15.301106"
       x="144.34982"
       y="424.34946" />
    <path
       style="fill:none;stroke:#000000;stroke-width:1px;stroke-linecap:butt;stroke-linejoin:miter;stroke-opacity:1"
       d="m 153.32267,438.4669 c -2.63467,-1.976 -3.74408,-2.56253 -5.83334,-5 -0.90387,-1.05452 -1.59612,-2.27881 -2.5,-3.33333 -0.76696,-0.89479 -1.59464,-1.74554 -2.5,-2.5 -2.59878,-2.16566 -2.22713,-0.90891 -4.16666,-3.33333 -0.62566,-0.78208 -1.11111,-1.66667 -1.66667,-2.5 -0.83333,-0.83334 -1.74554,-1.59465 -2.5,-2.5 -0.64117,-0.76941 -1.0255,-1.7306 -1.66667,-2.5 -0.75446,-0.90536 -1.66666,-1.66667 -2.5,-2.5 -2.25882,-2.25883 -1.07451,-1.07451 -3.33333,-3.33334 -0.27778,-0.27777 -0.55556,-0.55555 -0.83333,-0.83333 -0.27778,-0.27778 -0.65765,-0.48197 -0.83334,-0.83333 -0.12422,-0.24846 0.12423,-0.58488 0,-0.83334 -0.17568,-0.35136 -0.65765,-0.48197 -0.83333,-0.83333 -0.12423,-0.24845 0.12423,-0.58488 0,-0.83333 -0.50977,-1.01954 -1.68801,-1.05768 -2.5,-1.66667 -0.62854,-0.4714 -1.11111,-1.11111 -1.66667,-1.66667 -1.11111,-1.11111 -2.22222,-2.22222 -3.33333,-3.33333 -0.55556,-0.55556 -1.19526,-1.03813 -1.66667,-1.66667 -0.37267,-0.4969 -0.39412,-1.22746 -0.83333,-1.66666 -0.43921,-0.43921 -1.22746,-0.39413 -1.66667,-0.83334 -0.4392,-0.4392 -0.39412,-1.22746 -0.83333,-1.66666 -0.19642,-0.19642 -0.58488,0.12422 -0.83333,0 -0.35137,-0.17569 -0.48197,-0.65765 -0.83334,-0.83334 -0.24845,-0.12422 -0.55555,0 -0.83333,0 -0.55556,-0.27777 -1.14986,-0.48879 -1.66667,-0.83333 -0.32686,-0.21791 -0.55555,-0.55556 -0.83333,-0.83333 -0.27778,-0.27778 -0.61543,-0.50648 -0.83333,-0.83334 -0.34454,-0.51681 -0.46066,-1.16976 -0.83334,-1.66666 -0.4714,-0.62854 -1.19526,-1.03813 -1.66666,-1.66667 -0.37268,-0.4969 -0.39413,-1.22746 -0.83334,-1.66667 -0.4392,-0.4392 -1.16976,-0.46065 -1.66666,-0.83333 -0.0229,-0.0172 -3.132514,-2.93168 -3.333344,-3.33333 -0.12422,-0.24846 0.15409,-0.60221 0,-0.83334 -0.43581,-0.65372 -1.11111,-1.11111 -1.66666,-1.66666 -0.55556,-0.55556 -1.11111,-1.11111 -1.66667,-1.66667 -0.27778,-0.27778 -0.61543,-0.50647 -0.83333,-0.83333 -0.34454,-0.51681 -0.46066,-1.16977 -0.83334,-1.66667 -0.4714,-0.62854 -1.11111,-1.11111 -1.66666,-1.66667 -0.27778,-0.27777 -0.65765,-0.48197 -0.83334,-0.83333 -0.12422,-0.24845 0.0878,-0.56981 0,-0.83333 -0.19642,-0.58926 -0.55555,-1.11111 -0.83333,-1.66667 -0.27778,-0.55556 -0.48879,-1.14986 -0.83333,-1.66667 -0.21791,-0.32686 -0.65765,-0.48197 -0.83334,-0.83333 -0.12422,-0.24845 0.12423,-0.58488 0,-0.83333 -0.17568,-0.35137 -0.65765,-0.48197 -0.83333,-0.83334 -0.12423,-0.24845 0.12423,-0.58488 0,-0.83333 -0.17568,-0.35136 -0.65765,-0.48197 -0.83333,-0.83333 -0.12423,-0.24846 0.12422,-0.58488 0,-0.83334 -0.17569,-0.35136 -0.65765,-0.48197 -0.83334,-0.83333 -0.12422,-0.24845 0.12423,-0.58488 0,-0.83333 -0.17568,-0.35137 -0.65765,-0.48197 -0.83333,-0.83334 -0.22604,-0.45207 0.22802,-3.10531 0,-3.33333 -0.19642,-0.19642 -0.58488,0.12423 -0.83333,0 -1.84255,-0.92127 -0.2586,-0.5172 -0.83334,-1.66667 -0.17568,-0.35136 -0.65765,-0.48197 -0.83333,-0.83333 -0.12423,-0.24845 0,-0.55556 0,-0.83333 -0.27778,-0.27778 -0.65765,-0.48197 -0.83333,-0.83334 -0.12423,-0.24845 0.19642,-0.63691 0,-0.83333 -0.19642,-0.19642 -0.63692,0.19642 -0.83334,0 -1.11111,-1.11111 1.38889,-0.83333 -0.83333,-0.83333"
       id="path3040"
       inkscape:connector-curvature="0" />
    <text
       xml:space="preserve"
       style="font-size:44.11089325px;font-style:italic;font-weight:normal;line-height:125%;letter-spacing:0px;word-spacing:0px;fill:#cccccc;fill-opacity:1;stroke:none;font-family:Sans;-inkscape-font-specification:Sans Italic"
       x="166.32399"
       y="543.81781"
       id="text3806-0"
       sodipodi:linespacing="125%"
       transform="scale(0.90680544,1.1027724)"><tspan
         sodipodi:role="line"
         id="tspan3808-6"
         x="166.32399"
         y="543.81781"
         style="font-size:18.74712944px;fill:#cccccc">album</tspan></text>
    <text
       xml:space="preserve"
       style="font-size:14.70247173px;font-style:normal;font-weight:normal;line-height:125%;letter-spacing:0px;word-spacing:0px;fill:#ffffff;fill-opacity:1;stroke:none;font-family:Sans"
       x="289.20746"
       y="296.40561"
       id="text3773"
       sodipodi:linespacing="125%"
       transform="scale(0.65543732,1.5256989)"><tspan
         sodipodi:role="line"
         x="289.20746"
         y="296.40561"
         id="tspan3810"
         style="font-size:8.82148266px;fill:#ffffff">[curr time]</tspan></text>
    <path
       style="fill:#ffffff;stroke:#000000;stroke-width:1px;stroke-linecap:butt;stroke-linejoin:miter;stroke-opacity:1"
       d="M 178.09278,492.90722 190,481 l 11.90721,11.90722 z"
       id="path3119"
       inkscape:connector-curvature="0"
       sodipodi:nodetypes="cccc" />
    <text
       xml:space="preserve"
       style="font-size:40px;font-style:normal;font-weight:normal;line-height:125%;letter-spacing:0px;word-spacing:0px;fill:#000000;fill-opacity:1;stroke:none;font-family:Sans"
       x="45"
       y="415"
       id="text3044"
       sodipodi:linespacing="125%"><tspan
         sodipodi:role="line"
         id="tspan3046"
         x="45"
         y="415"
         style="font-size:20px;font-style:normal;font-variant:normal;font-weight:normal;font-stretch:normal;fill:#ffffff;font-family:Liberation Mono;-inkscape-font-specification:Liberation Mono">144</tspan></text>
    <text
       xml:space="preserve"
       style="font-size:40px;font-style:normal;font-weight:normal;line-height:125%;letter-spacing:0px;word-spacing:0px;fill:#000000;fill-opacity:1;stroke:none;font-family:Sans"
       x="135"
       y="415"
       id="text3044-0"
       sodipodi:linespacing="125%"><tspan
         sodipodi:role="line"
         id="tspan3046-4"
         x="135"
         y="415"
         style="font-size:16px;font-style:normal;font-variant:normal;font-weight:normal;font-stretch:normal;fill:#ffffff;font-family:Liberation Mono;-inkscape-font-specification:Liberation Mono">14</tspan></text>
    <text
       xml:space="preserve"
       style="font-size:40px;font-style:normal;font-weight:normal;line-height:125%;letter-spacing:0px;word-spacing:0px;fill:#000000;fill-opacity:1;stroke:none;font-family:Sans"
       x="175"
       y="415"
       id="text3044-0-7"
       sodipodi:linespacing="125%"><tspan
         sodipodi:role="line"
         x="175"
         y="415"
         style="font-size:16px;font-style:normal;font-variant:normal;font-weight:normal;font-stretch:normal;fill:#ffffff;font-family:Liberation Mono;-inkscape-font-specification:Liberation Mono"
         id="tspan3090">62</tspan></text>
    <text
       xml:space="preserve"
       style="font-size:40px;font-style:normal;font-weight:normal;line-height:125%;letter-spacing:0px;word-spacing:0px;fill:#000000;fill-opacity:1;stroke:none;font-family:Sans"
       x="-45"
       y="475"
       id="text3044-9"
       sodipodi:linespacing="125%"><tspan
         sodipodi:role="line"
         id="tspan3046-6"
         x="-45"
         y="475"
         style="font-size:20px;font-style:normal;font-variant:normal;font-weight:normal;font-stretch:normal;fill:#ffffff;font-family:Liberation Mono;-inkscape-font-specification:Liberation Mono">144</tspan></text>
    <text
       xml:space="preserve"
       style="font-size:40px;font-style:normal;font-weight:normal;line-height:125%;letter-spacing:0px;word-spacing:0px;fill:#000000;fill-opacity:1;stroke:none;font-family:Sans"
       x="70"
       y="280"
       id="text3052"
       sodipodi:linespacing="125%"><tspan
         sodipodi:role="line"
         id="tspan3054"
         x="70"
         y="280"
         style="font-style:normal;font-variant:normal;font-weight:bold;font-stretch:normal;fill:#ffffff;font-family:Liberation Mono;-inkscape-font-specification:Liberation Mono Bold">220</tspan></text>
    <text
       xml:space="preserve"
       style="font-size:40px;font-style:normal;font-weight:normal;line-height:125%;letter-spacing:0px;word-spacing:0px;fill:#000000;fill-opacity:1;stroke:none;font-family:Sans"
       x="390"
       y="520"
       id="text3052-1"
       sodipodi:linespacing="125%"><tspan
         sodipodi:role="line"
         id="tspan3054-1"
         x="390"
         y="520"
         style="font-style:normal;font-variant:normal;font-weight:bold;font-stretch:normal;fill:#ffffff;font-family:Liberation Mono;-inkscape-font-specification:Liberation Mono Bold">176</tspan></text>
    <text
       xml:space="preserve"
       style="font-size:40px;font-style:normal;font-weight:normal;line-height:125%;letter-spacing:0px;word-spacing:0px;fill:#000000;fill-opacity:1;stroke:none;font-family:Sans"
       x="228"
       y="592"
       id="text3044-9-4"
       sodipodi:linespacing="125%"><tspan
         sodipodi:role="line"
         id="tspan3046-6-7"
         x="228"
         y="592"
         style="font-size:16px;font-style:normal;font-variant:normal;font-weight:normal;font-stretch:normal;fill:#ffffff;font-family:Liberation Mono;-inkscape-font-specification:Liberation Mono">32</tspan></text>
    <text
       xml:space="preserve"
       style="font-size:40px;font-style:normal;font-weight:normal;line-height:125%;letter-spacing:0px;word-spacing:0px;fill:#000000;fill-opacity:1;stroke:none;font-family:Sans"
       x="70"
       y="620"
       id="text3044-9-5"
       sodipodi:linespacing="125%"><tspan
         sodipodi:role="line"
         id="tspan3046-6-5"
         x="70"
         y="620"
         style="font-size:16px;font-style:normal;font-variant:normal;font-weight:normal;font-stretch:normal;fill:#ffffff;font-family:Liberation Mono;-inkscape-font-specification:Liberation Mono">150</tspan></text>
    <text
       xml:space="preserve"
       style="font-size:40px;font-style:normal;font-variant:normal;font-weight:normal;font-stretch:normal;line-height:125%;letter-spacing:0px;word-spacing:0px;fill:#000000;fill-opacity:1;stroke:none;font-family:FreeSerif;-inkscape-font-specification:FreeSerif"
       x="3.4375896"
       y="190.60976"
       id="text3053"
       sodipodi:linespacing="125%"
       transform="translate(0,424)"><tspan
         sodipodi:role="line"
         id="tspan3055" /></text>
    <text
       xml:space="preserve"
       style="font-size:40px;font-style:normal;font-weight:normal;line-height:125%;letter-spacing:0px;word-spacing:0px;fill:#000000;fill-opacity:1;stroke:none;font-family:Sans"
       x="170"
       y="620"
       id="text3044-9-5-9"
       sodipodi:linespacing="125%"><tspan
         sodipodi:role="line"
         id="tspan3046-6-5-2"
         x="170"
         y="620"
         style="font-size:16px;font-style:normal;font-variant:normal;font-weight:normal;font-stretch:normal;fill:#ffffff;font-family:Liberation Mono;-inkscape-font-specification:Liberation Mono">70</tspan></text>
    <text
       xml:space="preserve"
       style="font-size:40px;font-style:normal;font-variant:normal;font-weight:normal;font-stretch:normal;line-height:125%;letter-spacing:0px;word-spacing:0px;fill:#000000;fill-opacity:1;stroke:none;font-family:FreeSerif;-inkscape-font-specification:FreeSerif"
       x="163.46747"
       y="134.52545"
       id="text3059"
       sodipodi:linespacing="125%"
       transform="translate(0,424)"><tspan
         sodipodi:role="line"
         id="tspan3061" /></text>
    <text
       xml:space="preserve"
       style="font-size:22.47152519px;font-style:normal;font-weight:normal;line-height:125%;letter-spacing:0px;word-spacing:0px;fill:#ffffff;fill-opacity:1;stroke:none;font-family:Sans"
       x="302.07996"
       y="236.1113"
       id="text3773-6-5"
       sodipodi:linespacing="125%"
       transform="scale(0.52304035,1.9118984)"><tspan
         sodipodi:role="line"
         x="302.07996"
         y="236.1113"
         id="tspan3798-6"
         style="font-size:6.48548937px;fill:#ffffff">[playl pos]/[playl tot]</tspan></text>
    <text
       xml:space="preserve"
       style="font-size:40px;font-style:normal;font-weight:normal;line-height:125%;letter-spacing:0px;word-spacing:0px;fill:#000000;fill-opacity:1;stroke:none;font-family:Sans"
       x="224"
       y="515"
       id="text3044-9-4-0"
       sodipodi:linespacing="125%"><tspan
         sodipodi:role="line"
         id="tspan3046-6-7-7"
         x="224"
         y="515"
         style="font-size:16px;font-style:normal;font-variant:normal;font-weight:normal;font-stretch:normal;fill:#ffffff;font-family:Liberation Mono;-inkscape-font-specification:Liberation Mono">111</tspan></text>
    <text
       xml:space="preserve"
       style="font-size:40px;font-style:normal;font-weight:normal;line-height:125%;letter-spacing:0px;word-spacing:0px;fill:#000000;fill-opacity:1;stroke:none;font-family:Sans"
       x="226"
       y="438"
       id="text3044-9-4-53"
       sodipodi:linespacing="125%"><tspan
         sodipodi:role="line"
         id="tspan3046-6-7-5"
         x="226"
         y="438"
         style="font-size:16px;font-style:normal;font-variant:normal;font-weight:normal;font-stretch:normal;fill:#ffffff;font-family:Liberation Mono;-inkscape-font-specification:Liberation Mono">16</tspan></text>
    <text
       xml:space="preserve"
       style="font-size:40px;font-style:normal;font-weight:normal;line-height:125%;letter-spacing:0px;word-spacing:0px;fill:#000000;fill-opacity:1;stroke:none;font-family:Sans"
       x="225"
       y="455"
       id="text3044-9-4-5"
       sodipodi:linespacing="125%"><tspan
         sodipodi:role="line"
         id="tspan3046-6-7-6"
         x="225"
         y="455"
         style="font-size:16px;font-style:normal;font-variant:normal;font-weight:normal;font-stretch:normal;fill:#ffffff;font-family:Liberation Mono;-inkscape-font-specification:Liberation Mono">17</tspan></text>
    <text
       xml:space="preserve"
       style="font-size:40px;font-style:normal;font-variant:normal;font-weight:normal;font-stretch:normal;line-height:125%;letter-spacing:0px;word-spacing:0px;fill:#000000;fill-opacity:1;stroke:none;font-family:FreeSerif;-inkscape-font-specification:FreeSerif"
       x="161.64441"
       y="7.3672066"
       id="text3240"
       sodipodi:linespacing="125%"
       transform="translate(0,424)"><tspan
         sodipodi:role="line"
         id="tspan3242"></tspan></text>
    <text
       xml:space="preserve"
       style="font-size:8px;font-style:normal;font-weight:normal;line-height:125%;letter-spacing:0px;word-spacing:0px;fill:#ffffff;fill-opacity:1;stroke:none;font-family:Sans"
       x="158"
       y="437"
       id="text3853-7"
       sodipodi:linespacing="125%"><tspan
         sodipodi:role="line"
         id="tspan3855-8"
         x="158"
         y="437"
         style="font-size:12px;fill:#ffffff">Re  Sh  Eq</tspan></text>
  </g>
</svg>
